<svg width="1200" height="320" viewBox="0 0 1200 320" fill="none" xmlns="http://www.w3.org/2000/svg" role="img" aria-label="MurexTheCoder banner">
  <defs>
    <linearGradient id="bg" x1="0" y1="0" x2="1" y2="1">
      <stop offset="0%" stop-color="#0f1026"/>
      <stop offset="50%" stop-color="#1e1b4b"/>
      <stop offset="100%" stop-color="#0b1220"/>
    </linearGradient>
    <linearGradient id="accent" x1="0" y1="0" x2="1" y2="0">
      <stop offset="0%" stop-color="#f97316"/>
      <stop offset="50%" stop-color="#f59e0b"/>
      <stop offset="100%" stop-color="#facc15"/>
    </linearGradient>
    <linearGradient id="accent2" x1="0" y1="0" x2="1" y2="1">
      <stop offset="0%" stop-color="#22d3ee"/>
      <stop offset="100%" stop-color="#38bdf8"/>
    </linearGradient>
  </defs>

  <rect width="1200" height="320" fill="url(#bg)"/>

  <g opacity="0.25">
    <circle cx="1040" cy="-20" r="180" fill="#334155"/>
    <circle cx="1180" cy="260" r="140" fill="#1f2937"/>
    <circle cx="140" cy="290" r="120" fill="#111827"/>
  </g>

  <g opacity="0.7">
    <path d="M0 220 C120 180 260 260 380 220 C520 160 640 260 760 230 C900 190 1040 240 1200 210 L1200 320 L0 320 Z" fill="#0b1a2e"/>
  </g>

  <g>
    <rect x="60" y="70" width="10" height="180" fill="url(#accent)"/>
    <rect x="90" y="90" width="10" height="140" fill="url(#accent2)"/>
  </g>

  <g>
    <text x="120" y="150" fill="#f8fafc" font-size="56" font-weight="700" font-family="Poppins, Segoe UI, Arial, sans-serif">MurexTheCoder</text>
    <text x="120" y="195" fill="#e2e8f0" font-size="22" font-weight="400" font-family="Fira Code, JetBrains Mono, Menlo, monospace">Software Engineer • Educator • Community Builder</text>
  </g>

  <g>
    <rect x="120" y="220" width="420" height="36" rx="18" fill="url(#accent)"/>
    <text x="140" y="244" fill="#0b1220" font-size="16" font-weight="700" font-family="Fira Code, JetBrains Mono, Menlo, monospace">Learning-first tools • Workshops • YouTube</text>
  </g>
</svg>
